<svg xmlns="http://www.w3.org/2000/svg" version="1.1" xmlns:xlink="http://www.w3.org/1999/xlink" xmlns:svgjs="http://svgjs.dev/svgjs" width="1000" height="1000" viewBox="0 0 1000 1000"><g transform="matrix(1,0,0,1,-0.14221556886212738,-0.14221556886229791)"><svg viewBox="0 0 334 334" data-background-color="#ffffff" preserveAspectRatio="xMidYMid meet" height="1000" width="1000" xmlns="http://www.w3.org/2000/svg" xmlns:xlink="http://www.w3.org/1999/xlink"><g id="tight-bounds" transform="matrix(1,0,0,1,0.04749999999998522,0.04750000000001364)"><svg viewBox="0 0 333.90454557049503 333.90454557049503" height="333.90454557049503" width="333.90454557049503"><g><svg></svg></g><g><svg viewBox="0 0 333.90454557049503 333.90454557049503" height="333.90454557049503" width="333.90454557049503"><g><path d="M0 166.952c0-92.205 74.747-166.952 166.952-166.952 92.205 0 166.952 74.747 166.953 166.952 0 92.205-74.747 166.952-166.953 166.953-92.205 0-166.952-74.747-166.952-166.953zM166.952 326.56c88.149 0 159.607-71.459 159.608-159.608 0-88.149-71.459-159.607-159.608-159.607-88.149 0-159.607 71.459-159.607 159.607 0 88.149 71.459 159.607 159.607 159.608z" data-fill-palette-color="tertiary" fill="#ee3e38" stroke="transparent"></path><ellipse rx="160.27418187383762" ry="160.27418187383762" cx="166.95227278524752" cy="166.95227278524752" fill="#ee3e38" stroke="transparent" stroke-width="0" fill-opacity="1" data-fill-palette-color="tertiary"></ellipse></g><g transform="matrix(1,0,0,1,103.47400554505373,71.17305217166896)"><svg viewBox="0 0 126.95653448038756 191.55844122715712" height="191.55844122715712" width="126.95653448038756"><g><svg viewBox="0 0 126.95653448038756 191.55844122715712" height="191.55844122715712" width="126.95653448038756"><g><svg viewBox="0 0 213.1584412271571 321.62423858688925" height="191.55844122715712" width="126.95653448038756"><g transform="matrix(1,0,0,1,0,184.8753666189691)"><svg viewBox="0 0 213.1584412271571 136.74887196792014" height="136.74887196792014" width="213.1584412271571"><g id="textblocktransform"><svg viewBox="0 0 213.1584412271571 136.74887196792014" height="136.74887196792014" width="213.1584412271571" id="textblock"><g><svg viewBox="0 0 213.1584412271571 136.74887196792014" height="136.74887196792014" width="213.1584412271571"><g transform="matrix(1,0,0,1,0,0)"><svg width="213.1584412271571" viewBox="0 -30.399999618530273 51.4900016784668 33.040000915527344" height="136.74887196792014" data-palette-color="#ffffff"><path d="M0 0L0-3.91 5.27-3.91 21.34-30.4 26.61-30.4 42.38-3.91 48.73-3.91 48.73 0 29.93 0 29.93-3.91 35.84-3.91 32.3-10.13 15.19-10.13 11.74-3.91 17.38-3.91 17.38 0 0 0ZM29.37-29.15L30.49-29.15 44.63-5.37 43.51-5.37 29.37-29.15ZM16.89-13.18L30.54-13.18 23.63-25.32 16.89-13.18ZM19.53-14.65L24.07-22.53 24.66-21.46 20.73-14.65 19.53-14.65ZM14.48-5.37L16.14-8.42 32.08-8.42 32.52-7.5 16.87-7.5 15.72-5.37 14.48-5.37ZM30.98 1.71L50.46 1.71 50.46-2.56 51.49-2.56 51.49 2.64 30.98 2.64 30.98 1.71ZM1.07 1.71L19.14 1.71 19.14-2.56 20.12-2.56 20.12 2.64 1.07 2.64 1.07 1.71Z" opacity="1" transform="matrix(1,0,0,1,0,0)" fill="#ffffff" class="wordmark-text-0" data-fill-palette-color="quaternary" id="text-0"></path></svg></g></svg></g></svg></g></svg></g><g transform="matrix(1,0,0,1,40.713262274387006,0)"><svg viewBox="0 0 131.7319166783831 152.5922399202704" height="152.5922399202704" width="131.7319166783831"><g><svg xmlns="http://www.w3.org/2000/svg" xmlns:xlink="http://www.w3.org/1999/xlink" version="1.1" x="0" y="0" viewBox="9.63800048828125 3.246999979019165 80.7239990234375 93.50699615478516" enable-background="new 0 0 100 100" xml:space="preserve" height="152.5922399202704" width="131.7319166783831" class="icon-icon-0" data-fill-palette-color="quaternary" id="icon-0"><g fill="#ffffff" data-fill-palette-color="quaternary"><g fill="#ffffff" data-fill-palette-color="quaternary"><polygon points="36.703,11.011 9.638,26.636 9.638,38.757 36.703,23.131 63.767,38.757 63.767,26.636   " fill="#ffffff" data-fill-palette-color="quaternary"></polygon></g><g fill="#ffffff" data-fill-palette-color="quaternary"><polygon points="63.298,89.092 36.233,73.467 36.233,61.348 63.298,76.973 90.362,61.348 90.362,73.467   " fill="#ffffff" data-fill-palette-color="quaternary"></polygon></g><g fill="#ffffff" data-fill-palette-color="quaternary"><polygon points="9.638,42.012 36.703,26.386 47.198,32.446 20.134,48.072 20.134,79.324 9.638,73.264   " fill="#ffffff" data-fill-palette-color="quaternary"></polygon></g><g fill="#ffffff" data-fill-palette-color="quaternary"><polygon points="77.083,18.872 50.018,3.247 39.522,9.307 66.586,24.932 66.586,56.184 77.083,50.124   " fill="#ffffff" data-fill-palette-color="quaternary"></polygon></g><g fill="#ffffff" data-fill-palette-color="quaternary"><polygon points="23.01,81.127 23.011,49.876 33.507,43.816 33.507,75.068 60.571,90.693 50.075,96.754   " fill="#ffffff" data-fill-palette-color="quaternary"></polygon></g><g fill="#ffffff" data-fill-palette-color="quaternary"><polygon points="90.362,58.092 90.362,26.84 79.866,20.78 79.866,52.031 52.802,67.658 63.298,73.719   " fill="#ffffff" data-fill-palette-color="quaternary"></polygon></g></g></svg></g></svg></g><g></g></svg></g></svg></g></svg></g></svg></g><defs></defs></svg><rect width="333.90454557049503" height="333.90454557049503" fill="none" stroke="none" visibility="hidden"></rect></g></svg></g></svg>